<svg xmlns="http://www.w3.org/2000/svg" xmlns:svg="http://www.w3.org/2000/svg" id="svg2" width="16" height="16" version="1.1" viewBox="0 0 16 16"><metadata id="metadata14"/><g id="g4"><line id="line6" stroke="#449FDB" stroke-width="1"/></g><path id="path8" fill="#126e12" fill-opacity="1" d="M6 3h2v1h-2zM9 3h2v1h-2zM14 3v4h-3v-1h2v-2h-1v-1zM5 6h2v1h-2zM8 6h2v1h-2zM3 4v2h1v1h-2v-4h3v1zM6 9h2v1h-2zM9 9h2v1h-2zM14 9v4h-3v-1h2v-2h-1v-1zM5 12h2v1h-2zM8 12h2v1h-2zM3 10v2h1v1h-2v-4h3v1zM15 1h-14v14h14v-14zM16 0v0 16h-16v-16h16z"/></svg>