<svg xmlns="http://www.w3.org/2000/svg" xmlns:svg="http://www.w3.org/2000/svg" id="svg2" width="16" height="16" version="1.1" viewBox="0 0 16 16"><metadata id="metadata14"/><g id="g4"><line id="line6" stroke="#449FDB" stroke-width="1"/></g><path id="path8" fill="#ca1010" fill-opacity="1" d="M15 4h-4v-1c0-0.55-0.45-1-1-1h-4c-0.55 0-1 0.45-1 1v1h-4c-0.55 0-1 0.45-1 1v9c0 0.55 0.45 1 1 1h14c0.55 0 1-0.45 1-1v-9c0-0.55-0.45-1-1-1zM6 3.002c0.001-0.001 0.001-0.001 0.002-0.002h3.996c0.001 0.001 0.001 0.001 0.002 0.002v0.998h-4v-0.998zM15 8h-2v1.5c0 0.275-0.225 0.5-0.5 0.5h-1c-0.275 0-0.5-0.225-0.5-0.5v-1.5h-6v1.5c0 0.275-0.225 0.5-0.5 0.5h-1c-0.275 0-0.5-0.225-0.5-0.5v-1.5h-2v-1h14v1z"/></svg>