<svg xmlns="http://www.w3.org/2000/svg" xmlns:svg="http://www.w3.org/2000/svg" id="svg2" width="16" height="16" version="1.1" viewBox="0 0 16 16"><metadata id="metadata13"/><defs id="defs11"><linearGradient id="linearGradient5254"><stop id="stop5256" offset="0" stop-color="#000" stop-opacity="1"/></linearGradient></defs><g id="icomoon-ignore"><line id="line5" x1="0" x2="0" y1="0" y2="0" stroke="#449fdb" stroke-width="1"/></g><path id="path7" fill="#8d7747" fill-opacity=".988" d="M 12,2 4.00025,2 C 2.9,2 2,2.9 2,4.00025 l 0,7.9995 C 2,13.10075 2.9,14 4.00025,14 l 7.9995,0 C 13.1,14 14,13.10075 14,11.99975 l 0,-7.9995 C 14.00025,2.9 13.10025,2 12,2 z"/><g id="text4555" fill="#fff" fill-opacity="1" stroke="none" font-family="Ubuntu Mono" font-size="9.298" font-stretch="normal" font-style="normal" font-variant="normal" font-weight="normal" letter-spacing="0" transform="matrix(1.0578229,0,0,0.99477157,0.03282003,0.21410175)" word-spacing="0" style="line-height:125%;-inkscape-font-specification:Ubuntu Mono"><path style="-inkscape-font-specification:Droid Sans Mono" id="path4605" fill="#fff" d="M 7.9863805,3.8057966 C 8.3071943,3.8058037 8.4676026,3.9783183 8.467606,4.323341 8.4676026,4.4988888 8.4191775,4.6305447 8.3223303,4.7183091 8.2285034,4.8030593 8.1165202,4.8454313 7.9863805,4.8454253 7.6625343,4.8454313 7.5006127,4.6714034 7.5006151,4.323341 7.5006127,3.9783183 7.6625343,3.8058037 7.9863805,3.8057966 M 7.5687131,6.5115551 6.5863388,6.3747116 l 0,-0.5584032 1.8906756,0 0,4.3355696 0.9453378,0.132306 0,0.558404 -2.8360134,0 0,-0.558404 0.9823743,-0.0908 0,-3.6818289" font-family="Droid Sans Mono"/></g></svg>