<svg xmlns="http://www.w3.org/2000/svg" xmlns:svg="http://www.w3.org/2000/svg" id="svg2" width="16" height="16" version="1.1" viewBox="0 0 16 16"><metadata id="metadata13"/><defs id="defs11"><linearGradient id="linearGradient5254"><stop id="stop5256" offset="0" stop-color="#000" stop-opacity="1"/></linearGradient></defs><g id="icomoon-ignore"><line id="line5" x1="0" x2="0" y1="0" y2="0" stroke="#449fdb" stroke-width="1"/></g><path id="path7" fill="#757a67" fill-opacity="1" d="M 12,2 4.00025,2 C 2.9,2 2,2.9 2,4.00025 l 0,7.9995 C 2,13.10075 2.9,14 4.00025,14 l 7.9995,0 C 13.1,14 14,13.10075 14,11.99975 l 0,-7.9995 C 14.00025,2.9 13.10025,2 12,2 z"/><g id="text4407" fill="#fff" fill-opacity="1" stroke="none" font-family="Monospace" font-size="14.795" font-stretch="normal" font-style="normal" font-variant="normal" font-weight="normal" letter-spacing="0" transform="matrix(0.96555969,0,0,0.90319612,0.27552274,0.77443086)" word-spacing="0" style="line-height:125%;-inkscape-font-specification:Monospace"><path style="-inkscape-font-specification:Ubuntu Mono Bold" id="path2989" fill="#fff" d="m 4.8929935,7.2528393 2.3228572,0 0,-2.5743768 1.5682986,0 0,2.5743768 2.3228567,0 0,1.4943222 -2.3228567,0 0,2.5743765 -1.5682986,0 0,-2.5743765 -2.3228572,0 0,-1.4943222" font-family="Ubuntu Mono" font-weight="bold"/></g></svg>