<svg xmlns="http://www.w3.org/2000/svg" xmlns:svg="http://www.w3.org/2000/svg" id="svg2" width="16" height="16" version="1.1" viewBox="0 0 16 16"><metadata id="metadata13"/><defs id="defs11"><linearGradient id="linearGradient5254"><stop id="stop5256" offset="0" stop-color="#000" stop-opacity="1"/></linearGradient></defs><g id="icomoon-ignore"><line id="line5" x1="0" x2="0" y1="0" y2="0" stroke="#449fdb" stroke-width="1"/></g><path id="path7" fill="#9aa65c" fill-opacity=".988" d="M 12,2 4.00025,2 C 2.9,2 2,2.9 2,4.00025 l 0,7.9995 C 2,13.10075 2.9,14 4.00025,14 l 7.9995,0 C 13.1,14 14,13.10075 14,11.99975 l 0,-7.9995 C 14.00025,2.9 13.10025,2 12,2 z"/><g id="text4714" fill="#fff" fill-opacity="1" stroke="none" font-family="Ubuntu Mono" font-size="10.201" font-stretch="normal" font-style="normal" font-variant="normal" font-weight="normal" letter-spacing="0" transform="matrix(1.2177545,0,0,1.2258347,-1.7420365,-1.8117816)" word-spacing="0" style="line-height:125%;-inkscape-font-specification:Ubuntu Mono"><path id="path4719" fill="#fff" d="m 8.4182426,5.5568517 4e-7,4.8946243 1.2241246,0 0,0.81577 -3.2847344,0 0,-0.81577 1.2241246,0 -4e-7,-4.8946243 -1.2241246,0 4e-7,-0.8157707 3.2847344,0 -4e-7,0.8157707 -1.2241246,0"/></g></svg>