<svg xmlns="http://www.w3.org/2000/svg" xmlns:svg="http://www.w3.org/2000/svg" id="svg2" width="16" height="16" version="1.1"><defs id="defs4"><linearGradient id="linearGradient3859"><stop id="stop3861" offset="0" stop-color="#eec73e" stop-opacity="1"/><stop id="stop3863" offset="1" stop-color="#9a8022" stop-opacity="1"/></linearGradient><linearGradient id="linearGradient3851"><stop id="stop3853" offset="0" stop-color="#69c" stop-opacity="1"/><stop id="stop3855" offset="1" stop-color="#0054a7" stop-opacity="1"/></linearGradient></defs><metadata id="metadata7"/><g id="layer1" fill="#639435" fill-opacity="1" transform="translate(0,-1036.3622)"><path id="rect2995" fill="#639435" fill-opacity="1" stroke="none" d="m 2,0 c 1,0 11,0 12,0 1,0 2,1 2,2 0,1 0,11 0,12 0,1 -1,2 -2,2 C 13,16 3,16 2,16 1,16 0,15 0,14 0,13 0,3 0,2 0,1 1,0 2,0 z" transform="translate(0,1036.3622)"/></g><g id="g3887" fill="#fff" transform="matrix(0.64864874,0,0,0.64864874,2.9726479,1.9750008)"><g id="icomoon-ignore" fill="#fff"><line id="line3877" x1="0" x2="0" y1="0" y2="0" fill="#fff" stroke="#449fdb" stroke-width="1"/></g><path id="path3879" fill="#fff" d="M 13.5,8 H 12.997 C 12.999,7.917 13,7.834 13,7.75 13,7.69 12.999,7.63 12.998,7.57 12.999,7.547 13,7.523 13,7.5 13,6.2 11.207,5.093 8.701,4.676 8.61,4.514 8.51,4.363 8.416,4.222 8.193,3.887 8,3.598 8,3.281 8,2.9 8.287,2.42 8.854,1.853 9.049,1.658 9.049,1.341 8.854,1.146 8.659,0.951 8.342,0.951 8.147,1.146 6.54,2.753 6.948,3.775 7.423,4.53 7.122,4.51 6.814,4.5 6.501,4.5 6.2,4.5 5.905,4.51 5.615,4.528 5.55,4.421 5.482,4.32 5.417,4.223 5.194,3.888 5.001,3.599 5.001,3.282 5.001,2.901 5.288,2.421 5.855,1.854 6.05,1.659 6.05,1.342 5.855,1.147 5.66,0.952 5.343,0.952 5.148,1.147 3.457,2.838 3.997,3.881 4.498,4.646 1.889,5.036 0.001,6.166 0.001,7.501 c 0,0.023 0.001,0.047 0.002,0.07 -0.001,0.06 -0.002,0.12 -0.002,0.18 0,4.556 2.91,8.25 6.5,8.25 2.018,0 3.822,-1.168 5.014,-3 h 1.986 c 1.381,0 2.5,-1.119 2.5,-2.5 0,-1.381 -1.119,-2.5 -2.5,-2.5 z m -7,1 C 4.015,9 2,8.328 2,7.5 2,6.857 3.214,6.309 4.92,6.095 4.799,6.401 4.54,6.753 4.147,7.146 3.952,7.341 3.952,7.658 4.147,7.853 4.245,7.951 4.373,7.999 4.501,7.999 4.629,7.999 4.757,7.95 4.855,7.853 5.578,7.13 5.893,6.525 5.978,6.01 6.15,6.003 6.324,6 6.502,6 7.001,6 7.48,6.027 7.928,6.077 7.81,6.387 7.55,6.745 7.148,7.146 c -0.195,0.195 -0.195,0.512 0,0.707 0.098,0.098 0.226,0.146 0.354,0.146 0.128,0 0.256,-0.049 0.354,-0.146 0.62,-0.62 0.94,-1.153 1.072,-1.617 1.248,0.267 2.074,0.733 2.074,1.264 0,0.828 -2.015,1.5 -4.5,1.5 z m 7,3 H 12.072 C 12.5,11.098 12.796,10.084 12.926,9 H 13.5 c 0.724,0 1.313,0.776 1.313,1.5 0,0.724 -0.589,1.5 -1.313,1.5 z"/></g></svg>