<svg xmlns="http://www.w3.org/2000/svg" xmlns:svg="http://www.w3.org/2000/svg" id="svg2" width="16" height="16" version="1.1"><defs id="defs4"><linearGradient id="linearGradient3859"><stop id="stop3861" offset="0" stop-color="#eec73e" stop-opacity="1"/><stop id="stop3863" offset="1" stop-color="#9a8022" stop-opacity="1"/></linearGradient><linearGradient id="linearGradient3851"><stop id="stop3853" offset="0" stop-color="#69c" stop-opacity="1"/><stop id="stop3855" offset="1" stop-color="#0054a7" stop-opacity="1"/></linearGradient></defs><metadata id="metadata7"/><g id="layer1" fill="#a34e37" fill-opacity="1" transform="translate(0,-1036.3622)"><path id="rect2995" fill="#a34e37" fill-opacity="1" stroke="none" d="m 2,0 c 1,0 11,0 12,0 1,0 2,1 2,2 0,1 0,11 0,12 0,1 -1,2 -2,2 C 13,16 3,16 2,16 1,16 0,15 0,14 0,13 0,3 0,2 0,1 1,0 2,0 z" transform="translate(0,1036.3622)"/></g><polyline id="polyline9" fill="#fff" points="161.318 110.395 174.658 110.395 174.658 125.194 189.814 125.194 189.814 110.395 203.152 110.395 203.152 153.018 189.814 153.018 189.814 135.851 174.658 135.851 174.658 153.018 161.318 153.018 161.318 110.395" transform="matrix(0.06586732,0,0,0.09384605,-8.6413524,-4.3601353)"/><polyline id="polyline11" fill="#fff" points="208.608 110.395 249.834 110.395 249.834 120.458 235.89 120.458 235.89 153.018 222.552 153.018 222.552 120.458 208.608 120.458 208.608 110.395" transform="matrix(0.06586732,0,0,0.09384605,-8.6601759,-4.3601353)"/><polyline id="polyline13" fill="#fff" points="255.292 110.395 272.873 110.395 279.57 136.425 286.2 110.395 303.794 110.395 303.794 153.018 292.88 153.018 292.88 120.701 284.647 153.018 274.521 153.018 266.205 120.701 266.205 153.018 255.292 153.018 255.292 110.395" transform="matrix(0.06586732,0,0,0.09384605,-8.5472349,-4.3601353)"/><polyline id="polyline15" fill="#fff" points="312.281 110.395 325.617 110.395 325.617 142.363 346.839 142.363 346.839 153.018 312.281 153.018 312.281 110.395" transform="matrix(0.06586732,0,0,0.09384605,-8.5848819,-4.3601353)"/></svg>