<svg xmlns="http://www.w3.org/2000/svg" xmlns:svg="http://www.w3.org/2000/svg" id="svg2" width="16" height="16" version="1.1"><defs id="defs4"><linearGradient id="linearGradient3859"><stop id="stop3861" offset="0" stop-color="#eec73e" stop-opacity="1"/><stop id="stop3863" offset="1" stop-color="#9a8022" stop-opacity="1"/></linearGradient><linearGradient id="linearGradient3851"><stop id="stop3853" offset="0" stop-color="#69c" stop-opacity="1"/><stop id="stop3855" offset="1" stop-color="#0054a7" stop-opacity="1"/></linearGradient></defs><metadata id="metadata7"/><g id="layer1" fill="#e44e25" fill-opacity="1" transform="translate(0,-1036.3622)"><path id="rect2995" fill="#e44e25" fill-opacity="1" stroke="none" d="m 2,0 c 1,0 11,0 12,0 1,0 2,1 2,2 0,1 0,11 0,12 0,1 -1,2 -2,2 C 13,16 3,16 2,16 1,16 0,15 0,14 0,13 0,3 0,2 0,1 1,0 2,0 z" transform="translate(0,1036.3622)"/></g><polyline id="polyline17" fill="#fff" points="253.253 290.938 253.118 290.938 165.645 290.938 156.023 185.599 155.086 175.344 253.118 175.344 253.253 175.344 351.186 175.344 350.251 185.599 348.467 204.978 347.681 213.57 347.556 213.57 253.253 213.57 253.118 213.57 197.871 213.57 201.449 252.714 253.118 252.714 253.253 252.714 333.568 252.714 344.118 252.714 343.162 262.979 333.964 363.614 333.375 370.073 253.254 391.755 253.254 391.761 253.072 391.811 172.879 370.073 167.396 310.053 185.508 310.053 206.695 310.053 209.483 340.539 253.082 352.035 253.118 352.026 253.118 352.021 296.779 340.516 301.326 290.938 253.253 290.938" transform="matrix(0.04514386,0,0,0.04514386,-3.4275361,-3.56425)"/><polyline id="polyline9" fill="#fff" points="161.318 110.395 174.658 110.395 174.658 125.194 189.814 125.194 189.814 110.395 203.152 110.395 203.152 153.018 189.814 153.018 189.814 135.851 174.658 135.851 174.658 153.018 161.318 153.018 161.318 110.395" transform="matrix(0.04720918,0,0,0.04720918,-3.9948376,-3.3352684)"/><polyline id="polyline11" fill="#fff" points="208.608 110.395 249.834 110.395 249.834 120.458 235.89 120.458 235.89 153.018 222.552 153.018 222.552 120.458 208.608 120.458 208.608 110.395" transform="matrix(0.04720918,0,0,0.04720918,-3.9948376,-3.3352684)"/><polyline id="polyline13" fill="#fff" points="255.292 110.395 272.873 110.395 279.57 136.425 286.2 110.395 303.794 110.395 303.794 153.018 292.88 153.018 292.88 120.701 284.647 153.018 274.521 153.018 266.205 120.701 266.205 153.018 255.292 153.018 255.292 110.395" transform="matrix(0.04720918,0,0,0.04720918,-3.9948376,-3.3352684)"/><polyline id="polyline15" fill="#fff" points="312.281 110.395 325.617 110.395 325.617 142.363 346.839 142.363 346.839 153.018 312.281 153.018 312.281 110.395" transform="matrix(0.04720918,0,0,0.04720918,-3.9948376,-3.3352684)"/></svg>