<svg xmlns="http://www.w3.org/2000/svg" xmlns:svg="http://www.w3.org/2000/svg" id="svg2" width="16" height="16" version="1.1"><metadata id="metadata7"/><g id="layer1" transform="translate(0,-1036.3622)"><path id="rect2995" fill="#369" fill-opacity="1" stroke="none" d="m 2,0 c 1,0 11,0 12,0 1,0 2,1 2,2 0,1 0,11 0,12 0,1 -1,2 -2,2 C 13,16 3,16 2,16 1,16 0,15 0,14 0,13 0,3 0,2 0,1 1,0 2,0 z" transform="translate(0,1036.3622)"/><g id="text3925" fill="#eee" fill-opacity="1" stroke="none" font-family="Ubuntu Mono" font-size="12" font-stretch="normal" font-style="normal" font-variant="normal" font-weight="normal" letter-spacing="0" word-spacing="0" style="line-height:125%;-inkscape-font-specification:Ubuntu Mono"><path style="-inkscape-font-specification:Handel Gothic" id="path2989" fill="#eee" d="m 2.5402048,1042.39 2.01,0 c 0.5899961,0 1.0174957,0.175 1.2825,0.51 0.2649952,0.335 0.3524951,0.7925 0.2625,1.3725 -0.035005,0.265 -0.1125047,0.525 -0.2325,0.78 -0.1150045,0.255 -0.2750043,0.485 -0.48,0.69 -0.2500039,0.26 -0.5175036,0.425 -0.8025,0.495 -0.285003,0.07 -0.5800027,0.105 -0.885,0.105 l -0.9,0 -0.285,1.425 -1.0425,0 1.0725,-5.3775 0,0 m 0.8775,0.855 -0.45,2.25 c 0.029998,0.01 0.059998,0.01 0.09,0.01 0.034998,0 0.069998,0 0.105,0 0.4799976,0 0.8799972,-0.043 1.2,-0.1425 0.3199966,-0.105 0.5349964,-0.47 0.645,-1.095 0.089996,-0.525 -3.8e-6,-0.8275 -0.27,-0.9075 -0.2650032,-0.08 -0.5975029,-0.1175 -0.9975,-0.1125 -0.060002,0.01 -0.1175024,0.01 -0.1725,0.01 -0.050002,0 -0.1025022,0 -0.1575,0 l 0.0075,-0.01" font-family="Handel Gothic" font-size="7.5" font-style="italic"/><path style="-inkscape-font-specification:Handel Gothic" id="path2991" fill="#eee" d="m 7.4101657,1040.9575 1.035,0 -0.2925,1.4325 0.93,0 c 0.5099963,0.01 0.8899959,0.115 1.1400003,0.315 0.254995,0.2 0.329995,0.58 0.225,1.14 l -0.5025003,2.4975 -1.05,0 0.48,-2.385 c 0.049997,-0.25 0.034997,-0.4275 -0.045,-0.5325 -0.080003,-0.105 -0.2525032,-0.1575 -0.5175,-0.1575 l -0.8325,-0.01 -0.615,3.0825 -1.035,0 1.08,-5.385 0,0" font-family="Handel Gothic" font-size="7.5" font-style="italic"/><path style="-inkscape-font-specification:Handel Gothic" id="path2993" fill="#eee" d="m 11.636884,1042.39 2.01,0 c 0.589997,0 1.017496,0.175 1.2825,0.51 0.264996,0.335 0.352496,0.7925 0.2625,1.3725 -0.035,0.265 -0.112504,0.525 -0.2325,0.78 -0.115004,0.255 -0.275004,0.485 -0.48,0.69 -0.250003,0.26 -0.517503,0.425 -0.8025,0.495 -0.285003,0.07 -0.580002,0.105 -0.885,0.105 l -0.9,0 -0.285,1.425 -1.0425,0 1.0725,-5.3775 0,0 m 0.8775,0.855 -0.45,2.25 c 0.03,0.01 0.06,0.01 0.09,0.01 0.035,0 0.07,0 0.105,0 0.479998,0 0.879998,-0.043 1.2,-0.1425 0.319997,-0.105 0.534997,-0.47 0.645,-1.095 0.09,-0.525 -3e-6,-0.8275 -0.27,-0.9075 -0.265003,-0.08 -0.597502,-0.1175 -0.9975,-0.1125 -0.06,0.01 -0.117502,0.01 -0.1725,0.01 -0.05,0 -0.102502,0 -0.1575,0 l 0.0075,-0.01" font-family="Handel Gothic" font-size="7.5" font-style="italic"/></g></g></svg>