<svg xmlns="http://www.w3.org/2000/svg" xmlns:svg="http://www.w3.org/2000/svg" id="svg2" width="16" height="16" version="1.1"><defs id="defs4"><linearGradient id="linearGradient3859"><stop id="stop3861" offset="0" stop-color="#eec73e" stop-opacity="1"/><stop id="stop3863" offset="1" stop-color="#9a8022" stop-opacity="1"/></linearGradient><linearGradient id="linearGradient3851"><stop id="stop3853" offset="0" stop-color="#69c" stop-opacity="1"/><stop id="stop3855" offset="1" stop-color="#0054a7" stop-opacity="1"/></linearGradient></defs><metadata id="metadata7"/><g id="layer1" fill="#a857a8" fill-opacity="1" transform="translate(0,-1036.3622)"><path id="rect2995" fill="#a857a8" fill-opacity="1" stroke="none" d="m 2,0 c 1,0 11,0 12,0 1,0 2,1 2,2 0,1 0,11 0,12 0,1 -1,2 -2,2 C 13,16 3,16 2,16 1,16 0,15 0,14 0,13 0,3 0,2 0,1 1,0 2,0 z" transform="translate(0,1036.3622)"/></g><text font-stretch="normal" style="line-height:100%;-inkscape-font-specification:Ubuntu Mono" id="text3819" x="1.022" y="10.593" fill="#fff" fill-opacity="1" stroke="none" font-family="Ubuntu Mono" font-size="11.931" font-style="normal" font-variant="normal" font-weight="normal" letter-spacing="0" word-spacing="0" xml:space="preserve"><tspan font-stretch="normal" style="line-height:100%;-inkscape-font-specification:Source Code Pro Bold" id="tspan3821" x="1.022" y="10.593" fill="#fff" font-family="Source Code Pro" font-size="7.954" font-style="normal" font-variant="normal" font-weight="bold" letter-spacing="-.026">XML</tspan></text></svg>